# xmcd
#
# Track frame offsets:
#	150
#	10935
#	27486
#	42955
#	57013
#	69363
#	85064
#	95791
#	112586
#	127921
#	141988
#	154230
#
# Disc length: 2267 seconds
#
# Revision: 1
# Processed by: cddbd v1.5.2PL0 Copyright (c) Steve Scherf et al.
# Submitted via: audiograbber 1.83.01
#
DISCID=9508d90c
DTITLE=Madrell, Barbara - CB20210
DYEAR=1900
DGENRE=Karaoke
TTITLE0=Sleeping Single In A Double Bed w/vocal
TTITLE1=I Was Country When Country Wasn't Cool w/vocal
TTITLE2=If Loving You Is Wrong (I Don't Want To Be Right) w/vocal
TTITLE3=One Of A Kind Pair Of Fools w/vocal
TTITLE4=Happy Birthday Dear Heartache w/vocal
TTITLE5=Married, But Not To Each Other w/vocal
TTITLE6=Sleeping Single In A Double Bed
TTITLE7=I Was Country When Country Wasn't Cool
TTITLE8=If Loving You Is Wrong (I Don't Want To Be Right)
TTITLE9=One Of A Kind Pair Of Fools
TTITLE10=Happy Birthday Dear Heartache
TTITLE11=Married, But Not To Each Other
EXTD=
EXTT0=
EXTT1=
EXTT2=
EXTT3=
EXTT4=
EXTT5=
EXTT6=
EXTT7=
EXTT8=
EXTT9=
EXTT10=
EXTT11=
PLAYORDER=
